<?xml version="1.0" encoding="UTF-8"?>
<svg version="1.1" xmlns="http://www.w3.org/2000/svg" width="666" height="185">
<path d="M0 0 C1.1034375 -0.03738281 2.206875 -0.07476563 3.34375 -0.11328125 C7.43480087 0.43860556 8.6793303 1.27520287 11.5 4.3125 C13.57444969 7.66379997 15.31573099 11.15672239 17.0625 14.6875 C18.119189 16.76919713 19.17783472 18.849902 20.23828125 20.9296875 C20.77662598 21.99026367 21.3149707 23.05083984 21.86962891 24.14355469 C24.40981245 29.08089857 27.07444747 33.94754835 29.75 38.8125 C30.74246577 40.62224326 31.73466044 42.43213522 32.7265625 44.2421875 C33.19481445 45.09651367 33.66306641 45.95083984 34.14550781 46.83105469 C42.06087961 61.33210714 42.06087961 61.33210714 45.5 68.3125 C47.89791603 65.29876463 49.68619306 62.21780605 51.43359375 58.7890625 C51.99425537 57.69609863 52.55491699 56.60313477 53.13256836 55.47705078 C54.02600952 53.72497314 54.02600952 53.72497314 54.9375 51.9375 C56.1946402 49.48788926 57.45580083 47.04037035 58.71875 44.59375 C59.03613632 43.97879669 59.35352264 43.36384338 59.68052673 42.73025513 C63.61758401 35.12353251 67.7348903 27.61699739 71.87109375 20.1171875 C73.50993559 17.14249286 75.11204556 14.15569847 76.66015625 11.1328125 C76.97734619 10.51905762 77.29453613 9.90530273 77.62133789 9.27294922 C78.42296244 7.7124653 79.21215392 6.14561042 80 4.578125 C81.74929985 1.93595335 82.46568523 1.19310545 85.5 0.3125 C88.40214167 0.06660646 91.27699522 0.07887857 94.1875 0.125 C95.3640918 0.1259668 95.3640918 0.1259668 96.56445312 0.12695312 C102.35953152 0.17203152 102.35953152 0.17203152 103.5 1.3125 C103.5953919 2.69126025 103.62188622 4.07486916 103.62025452 5.45692444 C103.62231651 6.79683693 103.62231651 6.79683693 103.62442017 8.16381836 C103.61902725 9.64519287 103.61902725 9.64519287 103.61352539 11.15649414 C103.61367142 12.19051865 103.61381744 13.22454315 103.6139679 14.28990173 C103.61326827 17.72584086 103.60547358 21.16172653 103.59765625 24.59765625 C103.59579225 26.97277293 103.59436826 29.34789 103.59336853 31.7230072 C103.58954197 37.98826144 103.5797105 44.25349267 103.56866455 50.51873779 C103.5584534 56.9063689 103.55387155 63.29400371 103.54882812 69.68164062 C103.53808836 82.22527026 103.52120127 94.76888391 103.5 107.3125 C100.28471084 107.98013202 97.28780518 108.47105805 94 108.5 C93.2678125 108.51417969 92.535625 108.52835937 91.78125 108.54296875 C89.5 108.3125 89.5 108.3125 84.5 106.3125 C84.17 83.5425 83.84 60.7725 83.5 37.3125 C78.92169777 45.32452891 74.60332181 53.02414382 70.5625 61.24609375 C67.92229979 66.52513605 65.0787947 71.69537351 62.25 76.875 C61.73018555 77.82761719 61.21037109 78.78023438 60.67480469 79.76171875 C52.96074556 93.8364933 52.96074556 93.8364933 49.58203125 94.9375 C48.83308594 95.06125 48.08414063 95.185 47.3125 95.3125 C46.20841797 95.5290625 46.20841797 95.5290625 45.08203125 95.75 C40.81295741 95.0266471 38.31754234 92.49399309 35.5 89.3125 C33.38543927 86.10868365 31.68559541 82.7576503 30 79.3125 C29.52570557 78.37623779 29.05141113 77.43997559 28.56274414 76.4753418 C27.19225104 73.76212482 25.84243122 71.039689 24.5 68.3125 C19.12276151 57.4520803 13.4023972 46.93681496 7.5 36.3125 C7.17 59.7425 6.84 83.1725 6.5 107.3125 C-6.5 108.3125 -6.5 108.3125 -11.5 107.3125 C-11.5 72.3325 -11.5 37.3525 -11.5 1.3125 C-7.48086937 0.50867387 -4.06018198 0.09012086 0 0 Z " fill="#F2F2F2" transform="translate(305.5,31.6875)"/>
<path d="M0 0 C3.95557254 2.76338778 3.95557254 2.76338778 5.6171875 4.50390625 C5.6171875 8.00280272 5.07598418 8.55926655 2.8671875 11.12890625 C2.10148437 12.04542969 2.10148437 12.04542969 1.3203125 12.98046875 C-0.64706282 14.74027695 -1.75831545 15.28268428 -4.3828125 15.50390625 C-6.3125 14.76171875 -6.3125 14.76171875 -8.2578125 13.62890625 C-13.45851158 10.83593822 -18.48161716 10.00167686 -24.3828125 10.50390625 C-27.09407634 11.93012309 -27.09407634 11.93012309 -29.3828125 13.50390625 C-30.0428125 13.50390625 -30.7028125 13.50390625 -31.3828125 13.50390625 C-32.0928135 14.81467732 -32.74321236 16.15737965 -33.3828125 17.50390625 C-33.9190625 18.61765625 -34.4553125 19.73140625 -35.0078125 20.87890625 C-38.04538106 29.11272154 -37.30238783 39.32909532 -34.3828125 47.50390625 C-31.96025482 51.93133925 -29.87682248 54.25690126 -25.3828125 56.50390625 C-19.45690264 57.4847465 -14.07036332 57.43746673 -9.0078125 54.00390625 C-8.3890625 53.54886719 -7.7703125 53.09382813 -7.1328125 52.625 C-4.50177715 50.93949298 -2.40087498 51.00089584 0.6171875 51.50390625 C1.2771875 52.16390625 1.9371875 52.82390625 2.6171875 53.50390625 C2.8646875 52.49328125 3.1121875 51.48265625 3.3671875 50.44140625 C4.74517448 45.6669725 6.53925562 40.83147384 10.8671875 38.06640625 C11.4446875 37.88078125 12.0221875 37.69515625 12.6171875 37.50390625 C12.6171875 36.84390625 12.6171875 36.18390625 12.6171875 35.50390625 C24.05629371 30.76725507 35.26164605 27.55098603 47.6171875 26.50390625 C48.97706786 22.42426517 48.17815605 19.85937211 46.8828125 15.83203125 C45.3801929 13.06795322 44.40185346 12.37300854 41.4921875 11.25390625 C34.80510302 9.72573946 29.36213342 11.45671543 23.4921875 14.69140625 C20.58492049 16.21728794 19.37568927 16.51618582 15.9296875 16.69140625 C11.46272611 15.09004273 9.89766684 12.52889973 7.6171875 8.50390625 C8.4296875 6.56640625 8.4296875 6.56640625 9.6171875 4.50390625 C10.6071875 4.17390625 11.5971875 3.84390625 12.6171875 3.50390625 C12.6171875 2.84390625 12.6171875 2.18390625 12.6171875 1.50390625 C14.69847854 0.520406 16.78230109 -0.45773833 18.8671875 -1.43359375 C20.02734375 -1.97886719 21.1875 -2.52414063 22.3828125 -3.0859375 C31.40227199 -7.01833469 43.14247152 -6.89484869 52.40234375 -3.59765625 C58.71014169 -0.46044457 62.94285391 4.08704622 65.92578125 10.4140625 C67.40400887 14.88215164 67.74190689 19.37120082 67.73071289 24.05029297 C67.73059959 25.64126297 67.73059959 25.64126297 67.73048401 27.26437378 C67.72532272 28.39271637 67.72016144 29.52105896 67.71484375 30.68359375 C67.7134288 31.85149445 67.71201385 33.01939514 67.71055603 34.22268677 C67.70497248 37.94145299 67.69242294 41.66015832 67.6796875 45.37890625 C67.67467038 47.90494705 67.67010784 50.43098879 67.66601562 52.95703125 C67.65500843 59.13934358 67.63828663 65.32162056 67.6171875 71.50390625 C66.01539452 71.70283769 64.41224332 71.89085433 62.80859375 72.07421875 C61.46970093 72.23301514 61.46970093 72.23301514 60.10375977 72.39501953 C57.6171875 72.50390625 57.6171875 72.50390625 54.5546875 71.37890625 C52.23051064 69.12970283 51.87511844 67.68505454 51.6171875 64.50390625 C50.32309461 65.12386703 49.03199077 65.75006978 47.7421875 66.37890625 C47.02289063 66.72695312 46.30359375 67.075 45.5625 67.43359375 C43.46583731 68.46948168 43.46583731 68.46948168 41.6171875 70.50390625 C33.33696981 74.47783272 24.06771003 74.27872101 15.54296875 71.29296875 C13.6171875 70.50390625 13.6171875 70.50390625 11.6171875 69.50390625 C11.6171875 68.84390625 11.6171875 68.18390625 11.6171875 67.50390625 C10.1321875 67.00890625 10.1321875 67.00890625 8.6171875 66.50390625 C7.4296875 63.94140625 7.4296875 63.94140625 6.6171875 61.50390625 C6.08351562 61.9628125 5.54984375 62.42171875 5 62.89453125 C-5.35274041 71.42031747 -15.49364346 74.27934708 -28.9609375 73.3203125 C-37.82152683 71.81773004 -45.98445371 65.52714418 -51.3828125 58.50390625 C-55.16051265 52.054413 -57.18741863 45.95492574 -57.3828125 38.50390625 C-57.43308594 37.7253125 -57.48335938 36.94671875 -57.53515625 36.14453125 C-57.96181978 25.42674332 -55.21275021 13.96936208 -48.0078125 5.81640625 C-46.7084375 4.67171875 -46.7084375 4.67171875 -45.3828125 3.50390625 C-44.4340625 2.63765625 -43.4853125 1.77140625 -42.5078125 0.87890625 C-30.2080497 -8.46891348 -12.75176321 -8.00643493 0 0 Z M25.6171875 44.50390625 C23.51678748 47.94092446 22.6171875 50.23012587 22.6171875 54.25390625 C24.04377567 57.46372964 25.36854322 58.19062452 28.6171875 59.50390625 C35.57676693 60.44757804 40.82188948 58.41547507 46.6171875 54.50390625 C49.07172584 51.84346845 50.03410077 50.06690435 49.9921875 46.44140625 C49.95230309 42.6444427 49.95230309 42.6444427 48.2421875 40.50390625 C42.80453001 37.15765549 30.84757777 41.79531129 25.6171875 44.50390625 Z " fill="#F2F2F2" transform="translate(137.3828125,67.49609375)"/>
<path d="M0 0 C6.64341853 7.38157614 9.45946654 16.67190819 9.203125 26.48828125 C8.15892343 35.64817607 4.55840379 43.78578624 -2.10546875 50.1953125 C-11.21902428 57.07574515 -20.5944875 59.60796499 -31.85546875 59.9453125 C-33.23412109 60.00912109 -33.23412109 60.00912109 -34.640625 60.07421875 C-39.14061969 60.25005067 -42.61196648 60.09401295 -47.10546875 59.1953125 C-47.10546875 71.4053125 -47.10546875 83.6153125 -47.10546875 96.1953125 C-51.60457248 96.94516312 -55.35977516 97.33067124 -59.85546875 97.3203125 C-61.54929687 97.32417969 -61.54929687 97.32417969 -63.27734375 97.328125 C-66.10546875 97.1953125 -66.10546875 97.1953125 -68.10546875 96.1953125 C-69.64146767 86.57251645 -69.25072215 76.73083764 -69.23828125 67.01171875 C-69.23895619 65.14664192 -69.23992781 63.28156518 -69.24118042 61.41648865 C-69.24264878 57.5207332 -69.24053088 53.6250008 -69.23583984 49.72924805 C-69.23014708 44.76231581 -69.23342421 39.79543768 -69.23941231 34.82850742 C-69.24304464 30.9806834 -69.24186704 27.13287196 -69.23928452 23.28504753 C-69.23862242 21.45481294 -69.23941829 19.62457716 -69.24176407 17.79434395 C-69.25101694 8.54684446 -69.24515953 -0.60990921 -68.10546875 -9.8046875 C-46.56209249 -12.38167126 -17.67880733 -15.15326343 0 0 Z M-47.10546875 6.1953125 C-47.13011885 11.30395146 -47.14830482 16.41255609 -47.16040039 21.52124023 C-47.16544079 23.26050418 -47.17227305 24.99976386 -47.1809082 26.73901367 C-47.19298667 29.23357187 -47.19869983 31.72807423 -47.203125 34.22265625 C-47.20828629 35.00495102 -47.21344757 35.78724579 -47.21876526 36.59324646 C-47.21896101 38.46098364 -47.16746569 40.32860454 -47.10546875 42.1953125 C-45.03445087 44.26633038 -40.76344916 43.38044718 -37.91796875 43.3828125 C-36.78391602 43.40118164 -36.78391602 43.40118164 -35.62695312 43.41992188 C-28.69445249 43.4379596 -23.14072824 41.68235132 -17.10546875 38.1953125 C-12.66646742 33.60324216 -12.7515065 27.85527575 -12.82421875 21.765625 C-13.39024159 16.59280513 -15.37804386 12.59592728 -19.41796875 9.3203125 C-25.99173274 6.56850432 -31.48105921 5.92235952 -38.54296875 6.0703125 C-39.78336914 6.08384766 -39.78336914 6.08384766 -41.04882812 6.09765625 C-43.06783583 6.12099738 -45.08669231 6.15685962 -47.10546875 6.1953125 Z " fill="#F3F3F3" transform="translate(72.10546875,42.8046875)"/>
<path d="M0 0 C8.27647054 6.75756771 11.84619234 14.97057437 13.5234375 25.390625 C13.80107644 29.09079491 13.73605003 32.68898637 13.5234375 36.390625 C13.49443359 37.65712891 13.49443359 37.65712891 13.46484375 38.94921875 C12.90734389 49.77823117 7.34213275 57.57192975 -0.1015625 65.015625 C-8.45956492 71.60845134 -19.85873241 73.00888367 -30.171875 72.171875 C-36.52396915 71.13642392 -41.88934887 68.5051994 -47.4765625 65.390625 C-47.4765625 64.730625 -47.4765625 64.070625 -47.4765625 63.390625 C-48.0540625 63.16375 -48.6315625 62.936875 -49.2265625 62.703125 C-55.3933003 59.10586128 -58.07755413 51.8206809 -60.4765625 45.390625 C-63.16748896 32.96585342 -62.28478682 20.37107068 -55.77734375 9.41015625 C-54.1622277 6.90260371 -52.51642814 4.57117103 -50.4765625 2.390625 C-49.8165625 2.390625 -49.1565625 2.390625 -48.4765625 2.390625 C-48.4765625 1.730625 -48.4765625 1.070625 -48.4765625 0.390625 C-46.58463775 -0.59607259 -44.68784272 -1.5734352 -42.7890625 -2.546875 C-41.73332031 -3.09214844 -40.67757813 -3.63742188 -39.58984375 -4.19921875 C-27.15026737 -9.83370692 -11.18739816 -7.27004423 0 0 Z M-36.4765625 12.390625 C-42.4768243 21.26446132 -43.38141766 30.84440699 -41.4140625 41.140625 C-39.57905106 48.25235138 -36.52261827 52.35992115 -30.4765625 56.390625 C-23.73030942 57.34009766 -17.64769556 57.10951546 -12.03125 53.01953125 C-9.3563775 50.21696383 -8.36800557 47.09637593 -7.4765625 43.390625 C-7.29351562 42.75382812 -7.11046875 42.11703125 -6.921875 41.4609375 C-5.23459882 33.61658331 -5.65573436 22.61714053 -9.51171875 15.47265625 C-12.67371379 11.35494567 -16.43357607 8.8487698 -21.578125 8.07421875 C-27.18757763 7.77543347 -32.17087646 8.60087084 -36.4765625 12.390625 Z " fill="#F2F2F2" transform="translate(478.4765625,68.609375)"/>
<path d="M0 0 C6.67345322 5.48706154 10.58444506 12.55438569 12 21 C12.14566406 21.75667969 12.29132813 22.51335937 12.44140625 23.29296875 C13.37215051 29.14196163 12.98849968 30.02300065 10 36 C-5.51 36 -21.02 36 -37 36 C-36.14603298 45.98891287 -36.14603298 45.98891287 -30.37890625 53.3203125 C-24.65043944 56.7264279 -18.48297583 56.98920564 -12 56 C-9.04169053 54.8882296 -6.33744803 53.61694387 -3.5703125 52.09375 C-0.45344188 50.76742208 1.64363893 50.58328581 5 51 C6.93359375 52.390625 6.93359375 52.390625 8.4375 54.25 C8.95183594 54.85328125 9.46617187 55.4565625 9.99609375 56.078125 C11 58 11 58 10.90234375 60.046875 C8.33125191 65.61200886 0.71318156 68.28077985 -4.6875 70.3125 C-15.54150957 73.9455782 -25.19654608 73.7861907 -36 70 C-46.42929353 64.74554677 -52.00794226 56.7833273 -56 46 C-58.92223781 35.06458176 -58.07968115 21.56595413 -52.7109375 11.609375 C-47.65895355 3.45055601 -41.21907629 -2.08162358 -32 -5 C-20.83417212 -7.0599706 -9.54810836 -6.54462573 0 0 Z M-33.546875 13.68359375 C-36.21382011 17.16710351 -37 18.41336212 -37 23 C-33.64264863 24.11911712 -31.11794614 24.11365586 -27.58203125 24.09765625 C-26.32841797 24.09443359 -25.07480469 24.09121094 -23.78320312 24.08789062 C-22.47287109 24.07951172 -21.16253906 24.07113281 -19.8125 24.0625 C-18.47721519 24.05748317 -17.14192859 24.05292059 -15.80664062 24.04882812 C-12.53771527 24.03702695 -9.26888009 24.02056297 -6 24 C-5.76453837 17.44685121 -5.76453837 17.44685121 -9 12 C-17.21995644 6.21768581 -26.50521754 6.01956758 -33.546875 13.68359375 Z " fill="#F2F2F2" transform="translate(650,68)"/>
<path d="M0 0 C0.76441406 -0.04576172 1.52882813 -0.09152344 2.31640625 -0.13867188 C3.06277344 -0.15349609 3.80914062 -0.16832031 4.578125 -0.18359375 C5.2577832 -0.2086499 5.93744141 -0.23370605 6.63769531 -0.25952148 C10.10005339 0.88299265 11.86751682 3.46821816 13.75 6.4375 C15.13741421 9.34633476 16.19389453 12.32980351 17.23046875 15.37890625 C17.67885857 16.6468528 17.67885857 16.6468528 18.13630676 17.94041443 C19.08207881 20.62289664 20.01016659 23.31109488 20.9375 26 C21.57106878 27.80966425 22.20582335 29.61891382 22.84179688 31.42773438 C23.73789397 33.97661806 24.63227907 36.52594161 25.51713562 39.07875061 C26.84391728 42.90361396 28.2002164 46.69543105 29.75 50.4375 C34.7555558 37.03683358 34.7555558 37.03683358 39.375 23.5 C44.54895945 7.73906083 44.54895945 7.73906083 48.75 1.4375 C52.36867559 0.2312748 55.67506251 0.32933082 59.4375 0.375 C60.13939453 0.37951172 60.84128906 0.38402344 61.56445312 0.38867188 C63.29300538 0.40043073 65.02151365 0.41836546 66.75 0.4375 C66.75 4.73715844 65.91109521 7.13200114 64.375 11.125 C64.11460937 11.805625 63.85421875 12.48625 63.5859375 13.1875 C60.61780711 20.89114752 57.51897253 28.54446942 54.43530273 36.20239258 C52.02046217 42.21094708 49.67086607 48.23427614 47.4375 54.3125 C45.14996453 60.49467801 42.61444921 66.50103279 39.75 72.4375 C39.41484375 73.17484375 39.0796875 73.9121875 38.734375 74.671875 C37.75 76.4375 37.75 76.4375 35.75 77.4375 C34.17015124 77.55968255 32.58452094 77.61299605 31 77.625 C30.15953125 77.63917969 29.3190625 77.65335937 28.453125 77.66796875 C25.00665486 77.37412231 22.83647444 77.09405904 19.75 75.4375 C17.91898381 72.50889003 16.82997118 69.37317342 15.6875 66.125 C15.34807373 65.21943359 15.00864746 64.31386719 14.65893555 63.38085938 C13.98096938 61.56778782 13.31224105 59.75123202 12.65332031 57.93115234 C11.50042372 54.74853455 10.28510217 51.5939666 9.0625 48.4375 C8.67320312 47.41785156 8.28390625 46.39820313 7.8828125 45.34765625 C6.77594418 42.5041497 5.61911724 39.68818806 4.4375 36.875 C2.11807964 31.35257057 -0.13933994 25.80674559 -2.375 20.25 C-2.71184814 19.41847412 -3.04869629 18.58694824 -3.39575195 17.73022461 C-5.55030791 12.35902267 -7.48494571 6.94894417 -9.25 1.4375 C-7.13842154 -0.67407846 -2.89296433 0.06933551 0 0 Z " fill="#F0F0F0" transform="translate(498.25,62.5625)"/>
<path d="M0 0 C0.08160748 1.89510699 0.13946459 3.79124504 0.1875 5.6875 C0.23970703 7.27111328 0.23970703 7.27111328 0.29296875 8.88671875 C-0.04023719 12.4275872 -0.73833774 14.26273091 -3 17 C-4.9453125 17.3828125 -4.9453125 17.3828125 -7.125 17.125 C-12.22450942 16.85047502 -16.42757269 17.67255203 -21 20 C-24.70250946 23.7950722 -26.10975848 26.41824846 -26.20532227 31.63330078 C-26.22526749 32.59414581 -26.24521271 33.55499084 -26.26576233 34.54495239 C-26.29083107 36.10438065 -26.29083107 36.10438065 -26.31640625 37.6953125 C-26.33718735 38.75789276 -26.35796844 39.82047302 -26.37937927 40.91525269 C-26.44490261 44.31843438 -26.50377273 47.72169489 -26.5625 51.125 C-26.60568257 53.42839366 -26.64929677 55.73177926 -26.69335938 58.03515625 C-26.80058682 63.69002021 -26.90234802 69.34496303 -27 75 C-30.22889285 75.67346626 -33.19800781 76.13662673 -36.5 76.125 C-37.59828125 76.12886719 -37.59828125 76.12886719 -38.71875 76.1328125 C-41.21799631 75.98730843 -43.55197418 75.51059694 -46 75 C-46.1544532 66.55021267 -46.30262556 58.10034769 -46.4429636 49.65031528 C-46.50833402 45.72588162 -46.57580007 41.80150816 -46.64819336 37.87719727 C-46.71808531 34.08417455 -46.78229219 30.29109291 -46.84269524 26.49790764 C-46.8666174 25.05673721 -46.89252644 23.61559824 -46.92053413 22.17450142 C-47.0641958 14.71597444 -47.16846816 7.38962282 -46 0 C-44.20578481 -1.79421519 -41.60967074 -1.21485363 -39.1875 -1.25 C-38.12917969 -1.27578125 -37.07085937 -1.3015625 -35.98046875 -1.328125 C-32.65006471 -0.96147501 -31.35274893 -0.34188173 -29 2 C-27.75 5.1875 -27.75 5.1875 -27 8 C-26.46375 7.2575 -25.9275 6.515 -25.375 5.75 C-17.90276742 -2.90205877 -10.07243494 -4.08251516 0 0 Z " fill="#F2F2F2" transform="translate(260,64)"/>
<path d="M0 0 C0.804375 -0.00128906 1.60875 -0.00257812 2.4375 -0.00390625 C3.283125 -0.00003906 4.12875 0.00382812 5 0.0078125 C6.2684375 0.00201172 6.2684375 0.00201172 7.5625 -0.00390625 C8.366875 -0.00261719 9.17125 -0.00132813 10 0 C10.7425 0.00112793 11.485 0.00225586 12.25 0.00341797 C14 0.1328125 14 0.1328125 15 1.1328125 C15.09492722 3.47535032 15.12559791 5.78827354 15.11352539 8.13110352 C15.11367142 8.86276733 15.11381744 9.59443115 15.1139679 10.3482666 C15.11326867 12.77778034 15.10547585 15.20721833 15.09765625 17.63671875 C15.0957921 19.31680764 15.09436819 20.99689707 15.09336853 22.67698669 C15.08954307 27.10754893 15.07971256 31.5380786 15.06866455 35.96862793 C15.05845103 40.48624226 15.05387104 45.00386184 15.04882812 49.52148438 C15.03809031 58.39194143 15.02101356 67.26237426 15 76.1328125 C10.65507229 77.27177413 6.61379215 77.06381721 2.1875 76.6953125 C1.49462891 76.64310547 0.80175781 76.59089844 0.08789062 76.53710938 C-1.60854437 76.40841431 -3.30434863 76.27145066 -5 76.1328125 C-5.02312446 66.37130262 -5.04091561 56.6097992 -5.05181217 46.84826756 C-5.05704078 42.31607156 -5.06413801 37.78389423 -5.07543945 33.25170898 C-5.08626914 28.8815842 -5.09227701 24.51147742 -5.09487724 20.14134026 C-5.09673135 18.47030287 -5.10035168 16.79926653 -5.10573006 15.12823677 C-5.11294159 12.79583699 -5.1139909 10.46351257 -5.11352539 8.13110352 C-5.11712067 7.4333934 -5.12071594 6.73568329 -5.12442017 6.01683044 C-5.11135885 0.00776465 -5.11135885 0.00776465 0 0 Z " fill="#F0F0F0" transform="translate(572,62.8671875)"/>
<path d="M0 0 C0.804375 -0.00128906 1.60875 -0.00257812 2.4375 -0.00390625 C3.283125 -0.00003906 4.12875 0.00382812 5 0.0078125 C6.2684375 0.00201172 6.2684375 0.00201172 7.5625 -0.00390625 C8.366875 -0.00261719 9.17125 -0.00132813 10 0 C10.7425 0.00112793 11.485 0.00225586 12.25 0.00341797 C14 0.1328125 14 0.1328125 15 1.1328125 C15.09492722 3.47535032 15.12559791 5.78827354 15.11352539 8.13110352 C15.11367142 8.86276733 15.11381744 9.59443115 15.1139679 10.3482666 C15.11326867 12.77778034 15.10547585 15.20721833 15.09765625 17.63671875 C15.0957921 19.31680764 15.09436819 20.99689707 15.09336853 22.67698669 C15.08954307 27.10754893 15.07971256 31.5380786 15.06866455 35.96862793 C15.05845103 40.48624226 15.05387104 45.00386184 15.04882812 49.52148438 C15.03809031 58.39194143 15.02101356 67.26237426 15 76.1328125 C8.24220963 77.28653948 8.24220963 77.28653948 5 77.3203125 C4.38125 77.33449219 3.7625 77.34867187 3.125 77.36328125 C0.25887554 77.05243319 -2.28120403 76.06739862 -5 75.1328125 C-5.02312465 65.50168538 -5.04091571 55.87056776 -5.05181217 46.23941898 C-5.05704074 41.76775701 -5.06413789 37.29611397 -5.07543945 32.82446289 C-5.08626929 28.51269277 -5.09227704 24.20094091 -5.09487724 19.88915825 C-5.09673132 18.24044952 -5.1003516 16.59174184 -5.10573006 14.94304085 C-5.11294178 12.64177378 -5.11399089 10.3405831 -5.11352539 8.03930664 C-5.115746 6.7269252 -5.11796661 5.41454376 -5.12025452 4.06239319 C-4.94069845 -0.31186237 -3.97907607 0.0060446 0 0 Z " fill="#F2F2F2" transform="translate(266,62.8671875)"/>
<path d="M0 0 C0.495 0.33 0.99 0.66 1.5 1 C1.5 1.66 1.5 2.32 1.5 3 C2.49 3.33 3.48 3.66 4.5 4 C6.25845645 7.51691289 6.18065337 11.17210537 5.5 15 C3.46994709 18.3792573 1.05205232 21.22397384 -2.5 23 C-7.79449372 23.34717992 -11.24663444 23.52421718 -15.5 20 C-18.66427079 16.29016528 -19.02028667 12.86927575 -18.85546875 8.15234375 C-18.18939314 4.11929254 -15.89796691 2.04847518 -12.75 -0.3125 C-8.47341926 -1.61923301 -4.15963265 -1.66385306 0 0 Z " fill="#EDEDED" transform="translate(277.5,31)"/>
<path d="M0 0 C4.14023237 1.8748222 6.20245229 3.77753317 8 7.875 C8.90741096 10.78627684 8.98738958 12.08039141 8.5 15.1875 C6.19623235 19.50706433 3.69428954 22.43523682 -1 24 C-5.03910815 24.38104794 -7.51931356 24.21261131 -11.25 22.5625 C-14.90831652 19.15361415 -16.20697086 15.89915779 -17 11 C-16.38034156 6.55911449 -13.3852337 3.90259448 -9.99609375 1.17578125 C-6.39997605 -0.94247986 -4.1203861 -0.65402954 0 0 Z " fill="#EDEDED" transform="translate(581,30)"/>
<path d="M0 0 C0.66 0.33 1.32 0.66 2 1 C-1.42166518 5.70478962 -5.57905197 9.27653164 -10 13 C-10 9.28115772 -9.1259934 8.63852271 -6.6875 5.9375 C-5.76517578 4.89916016 -5.76517578 4.89916016 -4.82421875 3.83984375 C-3 2 -3 2 0 0 Z " fill="#C1C1C1" transform="translate(609,67)"/>
<path d="M0 0 C0.99 0.33 1.98 0.66 3 1 C2.34 1 1.68 1 1 1 C0.5978125 1.86625 0.5978125 1.86625 0.1875 2.75 C-1.02929189 5.05550043 -2.30333879 7.02056192 -4 9 C-4.66 9 -5.32 9 -6 9 C-6.33 9.66 -6.66 10.32 -7 11 C-6.42676569 7.13066838 -4.61046448 4.84777943 -2 2 C-1.34 2 -0.68 2 0 2 C0 1.34 0 0.68 0 0 Z " fill="#C8C8C8" transform="translate(150,103)"/>
<path d="M0 0 C0.66 0 1.32 0 2 0 C0.61811547 3.21043882 -0.92421903 5.04936365 -3.625 7.25 C-4.57246094 8.03117187 -4.57246094 8.03117187 -5.5390625 8.828125 C-6.02117187 9.21484375 -6.50328125 9.6015625 -7 10 C-5.57268007 7.07153324 -4.13071088 4.48582937 -2 2 C-1.34 2 -0.68 2 0 2 C0 1.34 0 0.68 0 0 Z " fill="#CACACA" transform="translate(430,69)"/>
<path d="M0 0 C1.46726798 3.81489674 0.43336419 6.29011622 -1 10 C-2.85776765 6.86501708 -3.20140476 4.62528568 -3 1 C-2.01 1.495 -2.01 1.495 -1 2 C-0.67 1.34 -0.34 0.68 0 0 Z " fill="#9C9C9C" transform="translate(529,111)"/>
<path d="M0 0 C0.66 0.33 1.32 0.66 2 1 C-0.31 3.31 -2.62 5.62 -5 8 C-5.66 7.67 -6.32 7.34 -7 7 C-4.66666667 4.66666667 -2.33333333 2.33333333 0 0 Z " fill="#C7C7C7" transform="translate(241,64)"/>
</svg>
